<?xml version="1.0" encoding="UTF-8" standalone="no"?>
<svg
   xmlns:dc="http://purl.org/dc/elements/1.1/"
   xmlns:cc="http://creativecommons.org/ns#"
   xmlns:rdf="http://www.w3.org/1999/02/22-rdf-syntax-ns#"
   xmlns:svg="http://www.w3.org/2000/svg"
   xmlns="http://www.w3.org/2000/svg"
   xmlns:sodipodi="http://sodipodi.sourceforge.net/DTD/sodipodi-0.dtd"
   xmlns:inkscape="http://www.inkscape.org/namespaces/inkscape"
   sodipodi:docname="icon.svg"
   inkscape:version="1.0 (4035a4fb49, 2020-05-01)"
   id="svg8"
   version="1.1"
   viewBox="0 0 26.458333 26.458334"
   height="100"
   width="100">
  <defs
     id="defs2" />
  <sodipodi:namedview
     inkscape:window-maximized="1"
     inkscape:window-y="-8"
     inkscape:window-x="-8"
     inkscape:window-height="1017"
     inkscape:window-width="1920"
     units="px"
     showgrid="false"
     inkscape:document-rotation="0"
     inkscape:current-layer="layer1"
     inkscape:document-units="px"
     inkscape:cy="68.492515"
     inkscape:cx="18.30477"
     inkscape:zoom="3.959798"
     inkscape:pageshadow="2"
     inkscape:pageopacity="0.0"
     borderopacity="1.0"
     bordercolor="#666666"
     pagecolor="#ffffff"
     id="base" />
  <metadata
     id="metadata5">
    <rdf:RDF>
      <cc:Work
         rdf:about="">
        <dc:format>image/svg+xml</dc:format>
        <dc:type
           rdf:resource="http://purl.org/dc/dcmitype/StillImage" />
        <dc:title></dc:title>
      </cc:Work>
    </rdf:RDF>
  </metadata>
  <g
     id="layer1"
     inkscape:groupmode="layer"
     inkscape:label="Warstwa 1">
    <rect
       ry="6.1057692"
       y="2.220446e-16"
       x="1.7763568e-15"
       height="26.458334"
       width="26.458334"
       id="rect833"
       style="opacity:0.831984;fill:#32888b;stroke-width:0.102997;stroke-linecap:round;fill-opacity:1" />
    <path
       d="m 35.406875,2.2159772 c -0.198294,0.2362864 -0.356497,0.5051444 -0.516568,0.7683659 -0.131944,0.2042304 -0.229006,0.4299033 -0.310936,0.6582332 -0.08644,0.2038074 -0.150244,0.4144503 -0.188343,0.6322978 -0.02886,0.2529615 0.05977,0.4907851 0.141103,0.7255065 0.12887,0.3081931 0.291351,0.5998764 0.455315,0.8903139 0.155816,0.2801383 0.333079,0.5472194 0.485194,0.829679 0.242838,0.4601738 0.416058,0.9563245 0.57122,1.452136 0.124171,0.4363844 0.176931,0.8891878 0.159074,1.3417908 -0.03524,0.46403 -0.18436,0.9049097 -0.350241,1.3360017 -0.191724,0.435307 -0.418749,0.85415 -0.635659,1.2773 -0.240068,0.519997 -0.420243,1.065963 -0.59333,1.611275 -0.192489,0.603332 -0.37503,1.209523 -0.467102,1.836956 -0.110487,0.631692 -0.101381,1.270543 -0.03271,1.905422 0.08471,0.563439 0.303005,1.09753 0.555292,1.605065 0.162191,0.329847 0.371431,0.628417 0.598049,0.916268 0.209925,0.255767 0.453168,0.481405 0.667859,0.733099 0.193515,0.209603 0.357222,0.447575 0.566071,0.642634 0.06724,0.04859 0.121534,0.111428 0.178878,0.170672 0,0 0.40688,-0.248646 0.40688,-0.248646 v 0 c -0.05861,-0.05959 -0.112243,-0.124772 -0.181866,-0.17226 -0.213619,-0.18774 -0.377411,-0.424848 -0.569628,-0.633225 -0.212821,-0.252473 -0.454314,-0.478719 -0.665451,-0.732599 -0.225096,-0.285048 -0.435713,-0.578884 -0.60066,-0.903843 -0.253576,-0.500796 -0.470067,-1.029817 -0.552141,-1.58821 -0.06983,-0.632275 -0.0743,-1.266724 0.03896,-1.895368 0.09698,-0.623195 0.271815,-1.227809 0.464669,-1.827747 0.176288,-0.545656 0.364602,-1.089967 0.607926,-1.60978 0.21711,-0.423739 0.443532,-0.84383 0.632159,-1.281206 0.165603,-0.436003 0.31418,-0.8810487 0.344747,-1.3502377 C 36.630346,8.8483057 36.577616,8.3911019 36.447384,7.9510711 36.288188,7.4535133 36.111964,6.956045 35.876315,6.4893797 35.728904,6.2036021 35.553012,5.9354525 35.392715,5.657141 35.22917,5.3697079 35.06996,5.0793453 34.944528,4.7727858 34.867068,4.5446176 34.782953,4.3128339 34.816333,4.0678155 c 0.04152,-0.2153071 0.109151,-0.4225719 0.192581,-0.6253707 0.08458,-0.224521 0.179533,-0.4465843 0.311043,-0.6482172 0.160814,-0.2642705 0.319773,-0.5341222 0.526964,-0.7652171 0,0 -0.44005,0.1869667 -0.44005,0.1869667 z"
       id="path841"
       style="opacity:0.831984;fill:#ff0000;fill-opacity:1;stroke-width:0.103544;stroke-linecap:round" />
    <circle
       r="0.011125093"
       cy="0.33408689"
       cx="-5.4790249"
       style="fill:#ffffff;stroke:#000000;stroke-width:0.264583"
       id="path847" />
    <path
       d="m 11.933675,2.5158903 c -0.120499,0.1976501 -0.245808,0.3928872 -0.374437,0.5854726 -0.01997,0.033267 -0.03545,0.069682 -0.05991,0.099801 -0.02199,0.02708 -0.0549,0.043652 -0.0779,0.069887 -0.09083,0.1036378 -0.128545,0.2289003 -0.227849,0.330246 -0.120289,0.07011 -0.01604,-0.00396 -0.108407,0.1070684 -0.01475,0.017738 -0.03686,0.028275 -0.05196,0.045723 -0.05805,0.067102 -0.04125,0.1058619 -0.111738,0.1718161 -0.09644,0.1498677 -0.201195,0.2918283 -0.267817,0.4581078 -0.126516,0.2035567 -0.196493,0.4323202 -0.227574,0.6684944 -0.05451,0.2089005 -0.07784,0.4275804 -0.06388,0.6429132 0.0059,0.2079101 0.05258,0.4095022 0.08189,0.6143619 0.07631,0.2508023 0.159437,0.4993037 0.253229,0.7441459 0.07969,0.2150071 0.208869,0.400594 0.324683,0.5960692 0.110671,0.1860093 0.232062,0.3647774 0.339162,0.5528556 0.09292,0.1769378 0.241583,0.3089344 0.377568,0.4510577 0.133939,0.1501794 0.217507,0.3346506 0.329159,0.5010015 0.09623,0.1645648 0.221669,0.3107817 0.300321,0.4856771 0.01042,0.02318 0.07985,0.211521 0.08798,0.233446 0.07691,0.2092113 0.148424,0.4204163 0.21887,0.6319263 0.06272,0.223207 0.07256,0.456791 0.08085,0.687217 -0.0062,0.15079 0.01741,0.304662 -0.01778,0.453148 -0.01453,0.06131 -0.03627,0.120685 -0.05368,0.181242 -0.08147,0.16764 -0.142865,0.346768 -0.263395,0.491025 -0.128514,0.109439 -0.176376,0.284062 -0.304364,0.390579 -0.1109,0.136873 -0.178575,0.300769 -0.265152,0.452555 -0.09108,0.0753 -0.12022,0.183421 -0.162718,0.288133 -0.0108,0.02661 -0.01466,0.0562 -0.02874,0.08123 -0.01201,0.02134 -0.03211,0.03698 -0.04817,0.05548 -0.02023,0.06084 -0.0577,0.115062 -0.07765,0.176003 -0.01413,0.04314 -0.01736,0.08949 -0.03282,0.132176 -0.0433,0.119519 -0.07608,0.134135 -0.131377,0.248491 -0.02265,0.04684 -0.03913,0.09643 -0.05869,0.144649 -0.08491,0.248587 -0.238683,0.461223 -0.342778,0.701156 -0.01364,0.03934 -0.02206,0.0809 -0.04093,0.118024 -0.03377,0.06643 -0.09368,0.117107 -0.128175,0.183161 -0.02058,0.03941 -0.02984,0.08402 -0.04991,0.123692 -0.03986,0.07876 -0.08993,0.152055 -0.130193,0.230613 -0.0203,0.0427 -0.04059,0.08539 -0.06089,0.128091 -0.01813,0.04542 -0.03345,0.09206 -0.05438,0.136262 -0.158693,0.33508 0.01341,-0.08231 -0.144144,0.283743 -0.0806,0.205871 -0.03879,0.106159 -0.124831,0.299389 -0.083,0.25478 -0.162167,0.510569 -0.244188,0.765844 -0.116178,0.247125 -0.142508,0.520765 -0.155867,0.789998 -0.0047,0.363148 0.0047,0.726157 -0.0057,1.089289 -0.01284,0.303495 -0.01186,0.605382 0.03807,0.90543 0.04948,0.213748 0.112681,0.423799 0.183281,0.631355 0.0805,0.219668 0.175091,0.434039 0.287473,0.639396 0.0931,0.197029 0.20264,0.385988 0.325695,0.565952 0.113464,0.198721 0.258145,0.373531 0.394681,0.555976 0.118539,0.178069 0.273724,0.32677 0.418724,0.482531 0.161612,0.191779 0.348405,0.356443 0.545232,0.510587 0.164043,0.112051 0.343605,0.198472 0.513783,0.301342 0.162179,0.120099 0.308819,0.263337 0.444318,0.412788 0.104254,0.119971 0.21055,0.239273 0.325412,0.349273 0.114312,0.104099 0.184698,0.236662 0.246246,0.376057 0.07876,0.14285 0.168753,0.280714 0.259237,0.41691 0,0 2.82433,-1.655913 2.82433,-1.655913 v 0 c -0.08261,-0.122034 -0.155456,-0.249446 -0.228151,-0.377502 -0.08518,-0.172713 -0.176015,-0.342021 -0.299906,-0.4906 C 15.994587,22.658996 15.88356,22.554212 15.781329,22.441445 15.627753,22.277684 15.455945,22.130888 15.292866,21.977264 15.136511,21.850136 14.965125,21.745505 14.776618,21.672353 14.580667,21.554717 14.410499,21.405445 14.265592,21.228465 14.129876,21.073736 13.99227,20.921517 13.86404,20.760474 13.722809,20.59261 13.594313,20.41198 13.472535,20.22977 c -0.1176,-0.173535 -0.191437,-0.369964 -0.302606,-0.547615 -0.107296,-0.183461 -0.188471,-0.378231 -0.254276,-0.580263 -0.05619,-0.192931 -0.118694,-0.383596 -0.17482,-0.576327 -0.03479,-0.28246 -0.03903,-0.565989 -0.04111,-0.850333 -0.0095,-0.357468 -0.0039,-0.715912 0.03883,-1.071371 0.03777,-0.252828 0.105233,-0.49471 0.195921,-0.73373 0.07643,-0.244586 0.145462,-0.492242 0.242025,-0.729712 0.116277,-0.282543 0.26258,-0.551254 0.403861,-0.821904 0.129934,-0.222092 0.257602,-0.444926 0.357592,-0.682185 0.115224,-0.227027 0.227616,-0.454567 0.31823,-0.693024 0.118909,-0.231144 0.211273,-0.475286 0.35507,-0.693087 0.03004,-0.0765 0.06234,-0.15793 0.107903,-0.227139 0.04305,-0.06539 0.105084,-0.117968 0.126353,-0.19756 0.0827,-0.147545 0.186063,-0.281571 0.2969,-0.408985 0.08095,-0.14817 0.194511,-0.27351 0.274366,-0.422349 0.08527,-0.189837 0.178256,-0.379865 0.215343,-0.586367 0.04059,-0.233295 0.02932,-0.4674273 0.01546,-0.7031183 C 15.635348,9.44302 15.610463,9.1836857 15.53501,8.931323 15.463551,8.7154529 15.390639,8.4997087 15.296201,8.2926096 15.187597,8.0210793 15.040917,7.7761215 14.883986,7.5302365 14.787639,7.3310561 14.683714,7.1312485 14.541905,6.9603076 14.430044,6.8246639 14.289749,6.7159776 14.19211,6.5679869 14.081294,6.3795654 13.959617,6.1986526 13.845144,6.0124095 13.734565,5.8329868 13.628864,5.6525569 13.543496,5.4597643 13.445505,5.2438135 13.371951,5.0156011 13.334886,4.7809974 c -0.03107,-0.1900536 -0.05445,-0.3813548 -0.06006,-0.574067 0.01173,-0.1972849 0.05202,-0.3892105 0.09446,-0.5818134 0.05898,-0.2069716 0.150651,-0.3962556 0.265628,-0.5784959 0.102685,-0.1419082 0.202755,-0.2858235 0.312384,-0.4223604 0.06914,-0.1215647 0.195649,-0.197762 0.259178,-0.3238093 0.100206,-0.1803048 0.2395,-0.3313654 0.339184,-0.5122315 0.127777,-0.208336 0.268598,-0.4081362 0.399279,-0.6146344 0,0 -3.011256,1.3423048 -3.011256,1.3423048 z"
       id="path851"
       style="opacity:0.831984;fill:#ffffff;fill-opacity:1;stroke-width:0.1;stroke-linecap:round" />
  </g>
</svg>
